<svg width="9" height="10" viewBox="0 0 9 10" fill="none" xmlns="http://www.w3.org/2000/svg">
<path d="M3.58815 7.40836L4.5 6.42227L5.42367 7.40836L6.31183 6.46019L5.38814 5.4741L6.31183 4.48799L5.42367 3.53982L4.5 4.52592L3.58815 3.53982L2.7 4.48799L3.61184 5.4741L2.7 6.46019L3.58815 7.40836ZM2.35658 10C1.9427 10 1.58659 9.84374 1.28827 9.53116C0.98995 9.21859 0.84079 8.83544 0.84079 8.38177V2.55373H0V0.935522H3.07895V0H5.90921V0.935522H9V2.55373H8.15919V8.37631C8.15919 8.83616 8.01282 9.22174 7.72003 9.53305C7.42724 9.84435 7.06834 10 6.64344 10H2.35658ZM6.64344 2.55373H2.35658V8.38177H6.64344V2.55373Z" fill="white"/>
</svg>
